HIERARCHY
ROOT hip
{
  OFFSET 0 0 0
  CHANNELS 6 Xposition Yposition Zposition Zrotation Yrotation Xrotation
  JOINT abdomen
  {
    OFFSET 0 20.6881 -0.73152
    CHANNELS 3 Zrotation Xrotation Yrotation
    JOINT chest
    {
      OFFSET 0 11.7043 -0.48768
      CHANNELS 3 Zrotation Xrotation Yrotation
      JOINT neck
      {
        OFFSET 0 22.1894 -2.19456
        CHANNELS 3 Zrotation Xrotation Yrotation
        JOINT head
        {
          OFFSET -0.24384 7.07133 1.2192
          CHANNELS 3 Zrotation Xrotation Yrotation
          JOINT leftEye
          {
            OFFSET 4.14528 8.04674 8.04672
            CHANNELS 3 Zrotation Xrotation Yrotation
            End Site
            {
              OFFSET 1 0 0
            }
          }
          JOINT rightEye
          {
            OFFSET -3.6576 8.04674 8.04672
            CHANNELS 3 Zrotation Xrotation Yrotation
            End Site
            {
              OFFSET 1 0 0
            }
          }
        }
      }
      JOINT rCollar
      {
        OFFSET -2.68224 19.2634 -4.8768
        CHANNELS 3 Zrotation Xrotation Yrotation
        JOINT rShldr
        {
          OFFSET -8.77824 -1.95073 1.46304
          CHANNELS 3 Zrotation Xrotation Yrotation
          JOINT rForeArm
          {
            OFFSET -28.1742 -1.7115 0.48768
            CHANNELS 3 Zrotation Xrotation Yrotation
            JOINT rHand
            {
              OFFSET -22.5879 0.773209 7.07136
              CHANNELS 3 Zrotation Xrotation Yrotation
              JOINT rThumb1
              {
                OFFSET -1.2192 -0.487915 3.41376
                CHANNELS 3 Zrotation Xrotation Yrotation
                JOINT rThumb2
                {
                  OFFSET -3.37035 -0.52449 3.41376
                  CHANNELS 3 Zrotation Xrotation Yrotation
                  End Site
                  {
                    OFFSET -1.78271 -1.18214 1.43049
                  }
                }
              }
              JOINT rIndex1
              {
                OFFSET -7.75947 0.938293 5.60832
                CHANNELS 3 Zrotation Xrotation Yrotation
                JOINT rIndex2
                {
                  OFFSET -2.54057 -0.884171 1.56538
                  CHANNELS 3 Zrotation Xrotation Yrotation
                  End Site
                  {
                    OFFSET -1.62519 -0.234802 1.16502
                  }
                }
              }
              JOINT rMid1
              {
                OFFSET -8.24714 1.18213 3.41376
                CHANNELS 3 Zrotation Xrotation Yrotation
                JOINT rMid2
                {
                  OFFSET -3.10165 -0.590103 1.0647
                  CHANNELS 3 Zrotation Xrotation Yrotation
                  End Site
                  {
                    OFFSET -2.48547 -0.328903 0.83742
                  }
                }
              }
              JOINT rRing1
              {
                OFFSET -8.82822 0.546677 1.51678
                CHANNELS 3 Zrotation Xrotation Yrotation
                JOINT rRing2
                {
                  OFFSET -2.60934 -0.819778 -0.0198488
                  CHANNELS 3 Zrotation Xrotation Yrotation
                  End Site
                  {
                    OFFSET -2.33842 -0.294052 0.168128
                  }
                }
              }
              JOINT rPinky1
              {
                OFFSET -8.27202 -0.0477905 -0.4584
                CHANNELS 3 Zrotation Xrotation Yrotation
                JOINT rPinky2
                {
                  OFFSET -1.82734 -0.647385 -0.700984
                  CHANNELS 3 Zrotation Xrotation Yrotation
                  End Site
                  {
                    OFFSET -1.69225 -0.51767 -0.607171
                  }
                }
              }
            }
          }
        }
      }
      JOINT lCollar
      {
        OFFSET 2.68224 19.2634 -4.8768
        CHANNELS 3 Zrotation Xrotation Yrotation
        JOINT lShldr
        {
          OFFSET 8.77824 -1.95073 1.46304
          CHANNELS 3 Zrotation Xrotation Yrotation
          JOINT lForeArm
          {
            OFFSET 28.1742 -1.7115 0.48768
            CHANNELS 3 Zrotation Xrotation Yrotation
            JOINT lHand
            {
              OFFSET 22.5879 0.773209 7.07136
              CHANNELS 3 Zrotation Xrotation Yrotation
              JOINT lThumb1
              {
                OFFSET 1.2192 -0.487915 3.41376
                CHANNELS 3 Zrotation Xrotation Yrotation
                JOINT lThumb2
                {
                  OFFSET 3.37035 -0.52449 3.41376
                  CHANNELS 3 Zrotation Xrotation Yrotation
                  End Site
                  {
                    OFFSET 1.78271 -1.18214 1.43049
                  }
                }
              }
              JOINT lIndex1
              {
                OFFSET 7.75947 0.938293 5.60832
                CHANNELS 3 Zrotation Xrotation Yrotation
                JOINT lIndex2
                {
                  OFFSET 2.54057 -0.884171 1.56538
                  CHANNELS 3 Zrotation Xrotation Yrotation
                  End Site
                  {
                    OFFSET 1.62519 -0.234802 1.16502
                  }
                }
              }
              JOINT lMid1
              {
                OFFSET 8.24714 1.18213 3.41376
                CHANNELS 3 Zrotation Xrotation Yrotation
                JOINT lMid2
                {
                  OFFSET 3.10165 -0.590103 1.0647
                  CHANNELS 3 Zrotation Xrotation Yrotation
                  End Site
                  {
                    OFFSET 2.48547 -0.328903 0.83742
                  }
                }
              }
              JOINT lRing1
              {
                OFFSET 8.82822 0.546677 1.51678
                CHANNELS 3 Zrotation Xrotation Yrotation
                JOINT lRing2
                {
                  OFFSET 2.60934 -0.819778 -0.0198488
                  CHANNELS 3 Zrotation Xrotation Yrotation
                  End Site
                  {
                    OFFSET 2.33842 -0.294052 0.168128
                  }
                }
              }
              JOINT lPinky1
              {
                OFFSET 8.27202 -0.0477905 -0.4584
                CHANNELS 3 Zrotation Xrotation Yrotation
                JOINT lPinky2
                {
                  OFFSET 1.82734 -0.647385 -0.700984
                  CHANNELS 3 Zrotation Xrotation Yrotation
                  End Site
                  {
                    OFFSET 1.69225 -0.51767 -0.607171
                  }
                }
              }
            }
          }
        }
      }
    }
  }
  JOINT rButtock
  {
    OFFSET -8.77824 4.35084 1.2192
    CHANNELS 3 Zrotation Xrotation Yrotation
    JOINT rThigh
    {
      OFFSET 0 -1.70687 -2.19456
      CHANNELS 3 Zrotation Xrotation Yrotation
      JOINT rShin
      {
        OFFSET 0 -36.8199 0.73152
        CHANNELS 3 Zrotation Xrotation Yrotation
        JOINT rFoot
        {
          OFFSET 0.73152 -45.1104 -5.12064
          CHANNELS 3 Zrotation Xrotation Yrotation
          End Site
          {
            OFFSET -1.1221 -3.69964 12.103
          }
        }
      }
    }
  }
  JOINT lButtock
  {
    OFFSET 8.77824 4.35084 1.2192
    CHANNELS 3 Zrotation Xrotation Yrotation
    JOINT lThigh
    {
      OFFSET 0 -1.70687 -2.19456
      CHANNELS 3 Zrotation Xrotation Yrotation
      JOINT lShin
      {
        OFFSET 0 -36.8199 0.73152
        CHANNELS 3 Zrotation Xrotation Yrotation
        JOINT lFoot
        {
          OFFSET -0.73152 -45.1104 -5.12064
          CHANNELS 3 Zrotation Xrotation Yrotation
          End Site
          {
            OFFSET 1.1221 -3.69964 12.103
          }
        }
      }
    }
  }
}
MOTION
Frames:	10
Frame Time:	0.00833333
0.0 0.0 0.0 0.0 0.0 0.0 0.0 0.0 0.0 0.0 0.0 0.0 0.0 0.0 0.0 0.0 0.0 0.0 0.0 0.0 0.0 0.0 0.0 0.0 0.0 0.0 0.0 0.0 0.0 0.0 0.0 0.0 0.0 0.0 0.0 0.0 0.0 0.0 0.0 0.0 0.0 0.0 0.0 0.0 0.0 0.0 0.0 0.0 0.0 0.0 0.0 0.0 0.0 0.0 0.0 0.0 0.0 0.0 0.0 0.0 0.0 0.0 0.0 0.0 0.0 0.0 0.0 0.0 0.0 0.0 0.0 0.0 0.0 0.0 0.0 0.0 0.0 0.0 0.0 0.0 0.0 0.0 0.0 0.0 0.0 0.0 0.0 0.0 0.0 0.0 0.0 0.0 0.0 0.0 0.0 0.0 0.0 0.0 0.0 0.0 0.0 0.0 0.0 0.0 0.0 0.0 0.0 0.0 0.0 0.0 0.0 0.0 0.0 0.0 0.0 0.0 0.0 0.0 0.0 0.0 0.0 0.0 0.0 0.0 0.0 0.0 0.0 0.0 0.0 0.0 0.0 0.0
-34.1739 83.1429 0.730612 -0.0 0.0 -0.0 -0.0 -4.771896 -180.0 -0.0 -4.771896 180.0 -8.121061 9.226048 -74.697339 11.024599 5.414888 74.83074 0.0 0.0 0.0 0.0 0.0 0.0 -143.620413 38.233348 148.080496 -165.140082 -65.004932 166.398525 -178.755831 34.241508 145.816062 171.502655 -14.096414 144.181034 27.451228 -26.099095 2.267476 -12.147394 4.473363 -7.210073 -77.667448 43.02965 64.538509 9.820186 -11.856488 -14.925173 -171.869892 -41.091283 145.160004 4.923768 1.97479 2.383939 -145.121954 1.975391 -179.748922 -143.08107 -18.457702 -176.150236 54.223266 87.258986 -14.504216 52.234283 79.159518 -16.88129 80.1661 68.371792 -83.260848 155.930488 13.935208 -178.192421 -23.031986 75.198427 19.289622 10.234374 30.400765 -1.716942 -178.740285 -18.647484 -89.059934 2.11076 -58.215605 -1.627274 -2.325555 -3.867927 1.259147 167.515223 -6.236823 -108.624771 36.036059 51.723116 -29.832321 -5.389099 -12.570393 3.870843 0.000142 -0.018512 0.005816 -0.003852 -0.033087 0.000672 -9.96654 32.461829 -8.6263 0.958853 -1.668018 2.147025 -180.0 75.749642 -0.0 -180.0 73.473292 -180.0 -4.055723 -2.993391 -143.675094 129.221416 -61.315729 17.600952 -180.0 75.749642 -0.0 -180.0 73.473292 -180.0 2.765279 -2.468772 155.773528 -101.22967 -49.991482 5.74657
-33.2259 83.1918 0.638363 0.0 -0.0 -0.0 -0.0 0.0 -0.0 0.0 0.0 -0.0 0.184738 19.59802 -158.449732 7.630191 18.106594 157.200292 -0.0 -0.0 0.0 -0.0 -0.0 0.0 -142.973735 39.431617 147.390037 19.095131 14.399782 8.369563 5.466271 16.673254 -34.247891 171.268638 -14.774663 144.099333 -89.136032 38.427358 50.299234 -129.248108 -19.488646 77.956787 -90.225558 41.072425 75.796697 11.259482 -11.614804 -15.822117 -39.289155 53.36602 32.877985 2.016461 0.12794 -2.653909 -145.119721 0.310087 -179.225753 -141.547794 -27.702851 -174.714665 -1.60095 -4.015393 -1.486546 -149.89104 12.279216 -144.01851 80.1661 68.371792 -83.260848 -16.92511 14.254143 0.155212 167.395495 -76.729844 172.197033 0.447453 1.431124 0.043397 -178.619005 -18.760041 -89.038626 103.723746 18.321961 -44.423186 83.732676 42.330462 -69.989987 168.137081 -22.291619 -124.246196 0.057679 0.167876 -0.032027 166.322793 -4.215404 -143.275406 145.119209 0.226661 179.199545 -20.507326 -0.529915 9.112124 145.499137 13.103982 142.110579 146.013291 14.518021 142.351272 -0.0 0.0 0.0 -0.0 -0.0 -0.0 -4.911375 3.484732 -54.436469 -91.655762 -68.314619 18.432686 -0.0 0.0 0.0 -0.0 -0.0 -0.0 4.911375 3.484732 54.436469 -143.744746 -3.74933 46.08649
-32.2771 83.2561 0.453102 0.0 -0.0 -0.0 -0.0 -4.771896 -180.0 0.0 -4.771896 180.0 12.086107 9.490159 98.819281 -7.514184 13.392728 -98.942746 -0.0 -0.0 0.0 -0.0 -0.0 0.0 -159.220516 -48.028485 170.415257 27.612737 -40.500077 24.460925 7.750464 -13.066641 -32.581906 173.157638 -9.159505 144.684797 2.845274 -2.827221 -0.368405 174.664483 -81.756466 99.850605 1.506441 -2.484713 -0.828391 -10.388288 13.711753 3.82855 -173.037515 -44.087847 144.930636 -3.656748 21.293389 6.911157 -0.006699 3.47564 1.092469 -159.847122 43.609754 164.200354 -126.134193 -27.469381 -123.868484 -145.286286 13.053027 -144.161845 9.651699 34.836178 -11.199233 166.360512 0.410713 178.2628 164.700386 1.670155 -171.832785 -12.007077 -32.682352 -4.697821 -169.031334 -27.077921 -86.617906 177.806772 -16.206317 -104.674713 46.208543 39.652969 -36.318179 -163.274789 -54.909061 -109.833314 6.646794 17.108749 -4.326124 8.947521 24.573228 -4.373565 -0.000474 0.063711 -0.020016 166.934034 -30.735906 -175.394209 80.504108 -51.276204 78.929061 127.01446 -31.855458 127.066647 -0.0 0.0 -0.0 -0.0 -0.0 -0.0 6.817693 3.579341 71.6195 -46.650309 57.770961 -26.082789 -0.0 0.0 -0.0 -0.0 -0.0 -0.0 2.721753 1.041334 25.607042 -6.195415 1.421272 -24.513335
-31.3177 83.3609 0.14744 -0.0 0.0 -0.0 -0.0 -4.771896 -180.0 0.0 -4.771896 180.0 1.681211 -0.191291 9.638157 -1.625502 0.469952 -9.628684 0.0 0.0 0.0 0.0 0.0 0.0 -13.015985 41.250126 14.798846 -48.805772 89.390192 59.467652 85.025553 74.145946 -107.54315 -169.079062 40.580121 141.185327 -94.791592 37.828669 54.283857 -131.279445 -19.149493 76.696396 -153.453439 -21.067684 121.744506 -23.5681 51.767674 21.184139 -173.037515 -44.087847 144.930636 -42.752053 57.098588 39.51431 -0.000473 -0.060845 -0.019116 -164.866189 -64.15198 -178.721128 2.888705 8.069813 2.635862 0.017275 0.510185 -0.242236 9.651699 34.836178 -11.199233 167.65398 58.445358 -178.601745 -69.325423 70.507438 85.558237 157.127153 57.06017 -132.681668 -88.928376 -50.831327 -37.599672 21.772976 -20.45705 21.286865 152.105085 -18.556554 -121.367907 9.934934 44.658268 -9.1474 173.037515 -44.087847 -144.930636 -34.782123 -58.864621 -10.129901 145.121957 1.974539 179.748654 -17.693731 -22.016253 12.716592 -12.252484 41.424931 -10.280249 -33.178749 74.92088 1.222237 0.0 0.0 -0.0 -0.0 -0.0 -0.0 6.649139 3.263768 68.510317 -25.53137 -85.217436 -122.562265 0.0 0.0 -0.0 -0.0 -0.0 -0.0 -7.257013 4.706347 -82.148383 78.719635 72.522178 -5.480187
-30.329800000000002 83.4176 0.057286800000000006 -0.0 0.0 -0.0 -0.0 -4.771896 -180.0 0.0 -4.771896 180.0 -7.417427 6.176288 -56.922404 9.210072 2.862964 57.092487 0.0 -0.0 -0.0 0.0 -0.0 -0.0 -155.54842 -3.80427 161.899949 -147.211654 20.940447 159.069852 93.285726 -70.083079 69.889972 -153.061387 60.487093 129.334409 6.463714 -6.452652 -0.634888 24.09029 -49.534282 -21.74728 -90.225558 41.072425 75.796697 23.748933 -41.490603 -13.861469 -154.142656 11.63468 139.428942 -169.910502 -35.232305 144.711525 -145.119208 0.226618 -179.199532 22.416682 34.843774 -5.112655 -29.627384 -40.969672 -28.61639 -146.697128 7.432369 -144.174237 80.1661 68.371792 -83.260848 -16.632722 26.669544 -0.704846 -168.845033 -1.193661 -173.043793 32.355747 61.565023 -17.16559 -71.831195 -48.263725 -25.791675 26.353882 -81.667695 66.143664 162.919155 -37.929343 -122.629395 -21.380488 3.831108 6.531267 169.050321 -33.130258 -145.374545 160.763617 -5.381749 -141.656411 145.12196 1.973689 179.748387 146.740755 64.571951 -173.004613 149.198149 25.859061 145.26249 154.080999 37.660204 145.392589 0.0 0.0 -0.0 -0.0 -0.0 -0.0 6.649139 3.263768 68.510317 -25.53137 -85.217436 -122.562265 0.0 0.0 -0.0 -0.0 -0.0 -0.0 -7.257013 4.706347 -82.148383 78.719635 72.522178 -5.480187
-29.386699999999998 83.4786 -0.05334669999999999 0.0 -0.0 -0.0 -0.0 0.0 -0.0 0.0 0.0 0.0 -0.159914 19.533484 -156.451136 7.915057 17.916231 155.229033 -0.0 -0.0 0.0 -0.0 -0.0 0.0 -143.620413 38.233348 148.080496 -155.393326 -26.092474 171.292274 172.93074 -26.667017 141.158944 178.461499 7.624358 145.336057 -4.166296 4.057514 0.783763 -157.945358 -66.420173 114.419312 -50.386399 40.826202 40.02487 83.311418 -71.813313 39.649797 -161.518715 -9.304265 143.625478 -164.410426 -17.882518 143.763212 -77.742735 72.902851 95.870145 -80.837536 -72.012958 -98.09585 0.098846 0.258289 0.091255 -150.223776 12.980837 -143.97763 13.015985 41.250126 -14.798846 165.741594 76.249954 -177.194758 -2.004077 4.426531 33.207662 -166.950815 -26.234429 -142.180271 -174.054717 -22.871225 -88.063103 41.25021 -19.190501 0.927408 -134.671754 -75.013072 -81.180761 29.059339 41.242294 -29.182042 10.975806 25.789868 -7.640203 -0.12669 1.327404 1.264754 145.121954 1.975391 179.748922 142.133283 -24.357785 175.054909 125.807905 -27.87746 123.551547 132.56876 -19.526415 133.044709 -0.0 0.0 0.0 -0.0 -0.0 -0.0 -4.911375 3.484732 -54.436469 -91.655762 -68.314619 18.432686 -0.0 0.0 0.0 -0.0 -0.0 -0.0 4.911375 3.484732 54.436469 -143.744746 -3.74933 46.08649
-28.470499999999998 83.5153 -0.213666 -0.0 0.0 -0.0 -0.0 -4.771896 -180.0 -0.0 -4.771896 180.0 -8.121061 9.226048 -74.697339 11.024599 5.414888 74.83074 0.0 0.0 0.0 0.0 0.0 0.0 -142.973735 39.431617 147.390037 23.204946 -13.480853 6.58883 -178.635476 -48.271208 177.578612 -4.288164 13.621108 0.043843 6.463714 -6.452652 -0.634888 4.221465 -8.970434 -8.162263 -151.353117 -17.158427 121.133109 4.360188 30.763859 -2.103305 -0.057679 0.167876 0.032027 -170.787506 -18.04525 144.235436 0.004873 1.771387 0.556475 -165.922959 -1.812974 172.337288 -109.12543 -42.334242 -107.213498 -156.399557 55.668767 -151.661135 142.973735 39.431617 -147.390037 -21.14447 1.27899 -7.278164 177.635309 -34.354356 -178.343997 3.968496 12.628148 -0.005248 3.030664 2.96398 -0.542007 132.695978 -32.512324 -115.326584 -60.461659 -70.523647 -15.71111 8.215178 25.119662 -14.001135 -5.89299 -18.352005 2.543619 10.703012 25.473689 -7.006905 145.118942 0.185529 179.186624 139.16586 -38.302185 172.080101 -5.663198 16.872151 -5.087837 -13.365012 44.371291 -7.611968 0.0 0.0 -0.0 -0.0 -0.0 -0.0 6.649139 3.263768 68.510317 -25.53137 -85.217436 -122.562265 0.0 0.0 -0.0 -0.0 -0.0 -0.0 -7.257013 4.706347 -82.148383 78.719635 72.522178 -5.480187
-27.5491 83.5495 -0.276321 -0.0 0.0 -0.0 -0.0 -4.771896 -180.0 -0.0 -4.771896 180.0 -8.133567 10.422116 -81.502261 11.496437 6.51512 81.58876 0.0 0.0 0.0 0.0 0.0 0.0 -80.1661 68.371792 83.260848 -74.088902 86.559311 93.605397 -176.863206 10.869603 178.894177 -4.135753 13.14848 0.024742 11.110121 -11.092107 -0.639674 -38.762831 29.320865 29.242066 10.746993 -19.048016 -4.725035 -169.025124 -11.342648 106.256411 -0.969343 2.779591 0.553338 -166.364765 -4.406434 143.447102 -72.757246 -72.143382 -89.772159 18.69136 -25.404177 3.419468 -157.329919 57.246404 -150.511839 -0.423378 -7.616518 -6.123898 80.1661 68.371792 -83.260848 72.229525 86.566453 -91.742579 50.683531 -74.075582 77.478956 -107.594633 -69.657845 -91.256365 178.927535 -16.453687 -89.421826 91.084622 14.492272 -34.355602 -37.215945 -57.917763 0.643014 150.389264 -1.00799 -103.614238 -23.903801 -61.333833 -1.399383 165.563953 -6.44037 -140.576939 145.118942 0.185466 179.186604 34.380309 87.439048 -57.873318 -3.654579 10.395436 -3.321956 161.726931 52.063495 149.095539 0.0 0.0 -0.0 -0.0 -0.0 -0.0 6.649139 3.263768 68.510317 -25.53137 -85.217436 -122.562265 0.0 0.0 -0.0 -0.0 -0.0 -0.0 -7.257013 4.706347 -82.148383 78.719635 72.522178 -5.480187
-26.6517 83.5798 -0.347284 -0.0 0.0 -0.0 -0.0 -4.771896 -180.0 -0.0 -4.771896 180.0 -8.133567 10.422116 -81.502261 11.496437 6.51512 81.58876 0.0 0.0 0.0 0.0 0.0 0.0 -80.1661 68.371792 83.260848 -145.293804 -75.510173 -167.208328 -99.688474 73.26079 84.772473 53.998139 -67.100848 40.304265 175.880133 -21.257501 88.493291 -98.635204 18.941683 40.485797 -0.688173 1.108331 0.393211 -170.51141 -9.698794 109.773698 -161.153703 -8.160616 143.465095 -167.237027 -26.256126 143.860312 -145.119466 0.267753 -179.212454 -128.709438 -60.105162 -161.098172 -156.381711 53.734251 -150.117957 77.730755 82.753904 -38.71555 80.1661 68.371792 -83.260848 -16.636043 26.569078 -0.697254 179.003284 -52.030427 -177.255219 4.369689 13.873302 -0.054581 -0.567845 -0.561452 0.084526 122.950695 -14.041273 -110.472272 -2.325555 -3.867927 1.259147 -0.746757 -0.430493 -0.70302 145.288303 29.524489 -132.692556 -5.60907 0.840176 1.602434 145.119208 0.226597 179.199525 64.77282 -77.945233 96.624251 126.797849 -26.619602 124.512652 83.418737 -53.909599 85.402856 0.0 0.0 -0.0 -0.0 -0.0 -0.0 6.649139 3.263768 68.510317 -25.53137 -85.217436 -122.562265 0.0 0.0 -0.0 -0.0 -0.0 -0.0 -7.257013 4.706347 -82.148383 78.719635 72.522178 -5.480187
